<?xml version="1.0" encoding="UTF-8" standalone="no"?>
<!DOCTYPE svg PUBLIC "-//W3C//DTD SVG 1.1//EN"
 "http://www.w3.org/Graphics/SVG/1.1/DTD/svg11.dtd">
<!-- Generated by graphviz version 2.44.1 (20200629.0800)
 -->
<!-- Title: politics2 Pages: 1 -->
<svg width="760pt" height="188pt"
 viewBox="0.00 0.00 760.00 188.00" xmlns="http://www.w3.org/2000/svg" xmlns:xlink="http://www.w3.org/1999/xlink">
<g id="graph0" class="graph" transform="scale(1 1) rotate(0) translate(4 184)">
<title>politics2</title>
<polygon fill="white" stroke="transparent" points="-4,4 -4,-184 756,-184 756,4 -4,4"/>
<!-- a1 -->
<g id="node1" class="node">
<title>a1</title>
<polygon fill="none" stroke="black" points="213,-180 139.43,-162 213,-144 286.57,-162 213,-180"/>
<text text-anchor="middle" x="213" y="-158.3" font-family="Times New Roman,serif" font-size="14.00">民主监督</text>
</g>
<!-- b1 -->
<g id="node2" class="node">
<title>b1</title>
<ellipse fill="none" stroke="black" cx="143" cy="-90" rx="51.99" ry="18"/>
<text text-anchor="middle" x="143" y="-86.3" font-family="Times New Roman,serif" font-size="14.00">公民角度</text>
</g>
<!-- a1&#45;&gt;b1 -->
<g id="edge1" class="edge">
<title>a1&#45;&gt;b1</title>
<path fill="none" stroke="black" d="M199.17,-147.17C189.85,-137.85 177.31,-125.31 166.45,-114.45"/>
<polygon fill="black" stroke="black" points="168.8,-111.85 159.26,-107.26 163.85,-116.8 168.8,-111.85"/>
</g>
<!-- b2 -->
<g id="node3" class="node">
<title>b2</title>
<ellipse fill="none" stroke="black" cx="282" cy="-90" rx="51.99" ry="18"/>
<text text-anchor="middle" x="282" y="-86.3" font-family="Times New Roman,serif" font-size="14.00">国家角度</text>
</g>
<!-- a1&#45;&gt;b2 -->
<g id="edge3" class="edge">
<title>a1&#45;&gt;b2</title>
<path fill="none" stroke="black" d="M226.63,-147.17C235.82,-137.85 248.18,-125.31 258.88,-114.45"/>
<polygon fill="black" stroke="black" points="261.45,-116.84 265.97,-107.26 256.46,-111.92 261.45,-116.84"/>
</g>
<!-- c1 -->
<g id="node4" class="node">
<title>c1</title>
<polygon fill="none" stroke="black" points="80,-36 0,-36 0,0 80,0 80,-36"/>
<text text-anchor="middle" x="40" y="-14.3" font-family="Times New Roman,serif" font-size="14.00">民主意识</text>
</g>
<!-- b1&#45;&gt;c1 -->
<g id="edge2" class="edge">
<title>b1&#45;&gt;c1</title>
<path fill="none" stroke="black" d="M120.4,-73.64C106.73,-64.35 89.06,-52.34 73.76,-41.95"/>
<polygon fill="black" stroke="black" points="75.32,-38.77 65.08,-36.04 71.38,-44.56 75.32,-38.77"/>
</g>
<!-- c2 -->
<g id="node5" class="node">
<title>c2</title>
<polygon fill="none" stroke="black" points="152,-36 98,-36 98,0 152,0 152,-36"/>
<text text-anchor="middle" x="125" y="-14.3" font-family="Times New Roman,serif" font-size="14.00">渠道</text>
</g>
<!-- b1&#45;&gt;c2 -->
<g id="edge5" class="edge">
<title>b1&#45;&gt;c2</title>
<path fill="none" stroke="black" d="M138.64,-72.05C136.64,-64.26 134.21,-54.82 131.96,-46.08"/>
<polygon fill="black" stroke="black" points="135.32,-45.09 129.44,-36.28 128.54,-46.83 135.32,-45.09"/>
</g>
<!-- c3 -->
<g id="node6" class="node">
<title>c3</title>
<polygon fill="none" stroke="black" points="224,-36 170,-36 170,0 224,0 224,-36"/>
<text text-anchor="middle" x="197" y="-14.3" font-family="Times New Roman,serif" font-size="14.00">权利</text>
</g>
<!-- b1&#45;&gt;c3 -->
<g id="edge6" class="edge">
<title>b1&#45;&gt;c3</title>
<path fill="none" stroke="black" d="M155.8,-72.41C162.2,-64.12 170.08,-53.89 177.24,-44.62"/>
<polygon fill="black" stroke="black" points="180.2,-46.5 183.54,-36.45 174.66,-42.23 180.2,-46.5"/>
</g>
<!-- c4 -->
<g id="node7" class="node">
<title>c4</title>
<polygon fill="none" stroke="black" points="322,-36 242,-36 242,0 322,0 322,-36"/>
<text text-anchor="middle" x="282" y="-14.3" font-family="Times New Roman,serif" font-size="14.00">改进工作</text>
</g>
<!-- b2&#45;&gt;c4 -->
<g id="edge4" class="edge">
<title>b2&#45;&gt;c4</title>
<path fill="none" stroke="black" d="M282,-71.7C282,-63.98 282,-54.71 282,-46.11"/>
<polygon fill="black" stroke="black" points="285.5,-46.1 282,-36.1 278.5,-46.1 285.5,-46.1"/>
</g>
<!-- c5 -->
<g id="node8" class="node">
<title>c5</title>
<polygon fill="none" stroke="black" points="498,-36 340,-36 340,0 498,0 498,-36"/>
<text text-anchor="middle" x="419" y="-14.3" font-family="Times New Roman,serif" font-size="14.00">决策科学化、民主化</text>
</g>
<!-- b2&#45;&gt;c5 -->
<g id="edge7" class="edge">
<title>b2&#45;&gt;c5</title>
<path fill="none" stroke="black" d="M310.05,-74.67C329.23,-64.87 355,-51.7 376.67,-40.63"/>
<polygon fill="black" stroke="black" points="378.35,-43.7 385.67,-36.03 375.17,-37.46 378.35,-43.7"/>
</g>
<!-- a2 -->
<g id="node9" class="node">
<title>a2</title>
<polygon fill="none" stroke="black" points="591,-180 488.95,-162 591,-144 693.05,-162 591,-180"/>
<text text-anchor="middle" x="591" y="-158.3" font-family="Times New Roman,serif" font-size="14.00">参与民主生活</text>
</g>
<!-- c6 -->
<g id="node10" class="node">
<title>c6</title>
<polygon fill="none" stroke="black" points="510,-108 352,-108 352,-72 510,-72 510,-108"/>
<text text-anchor="middle" x="431" y="-86.3" font-family="Times New Roman,serif" font-size="14.00">责任感和主人翁意识</text>
</g>
<!-- a2&#45;&gt;c6 -->
<g id="edge8" class="edge">
<title>a2&#45;&gt;c6</title>
<path fill="none" stroke="black" d="M563.13,-148.81C540.06,-138.72 506.76,-124.14 479.36,-112.16"/>
<polygon fill="black" stroke="black" points="480.5,-108.84 469.94,-108.03 477.69,-115.25 480.5,-108.84"/>
</g>
<!-- c7 -->
<g id="node11" class="node">
<title>c7</title>
<polygon fill="none" stroke="black" points="582,-108 528,-108 528,-72 582,-72 582,-108"/>
<text text-anchor="middle" x="555" y="-86.3" font-family="Times New Roman,serif" font-size="14.00">态度</text>
</g>
<!-- a2&#45;&gt;c7 -->
<g id="edge9" class="edge">
<title>a2&#45;&gt;c7</title>
<path fill="none" stroke="black" d="M582.83,-145.12C578.6,-136.89 573.32,-126.62 568.5,-117.26"/>
<polygon fill="black" stroke="black" points="571.58,-115.58 563.89,-108.29 565.35,-118.79 571.58,-115.58"/>
</g>
<!-- c8 -->
<g id="node12" class="node">
<title>c8</title>
<polygon fill="none" stroke="black" points="654,-108 600,-108 600,-72 654,-72 654,-108"/>
<text text-anchor="middle" x="627" y="-86.3" font-family="Times New Roman,serif" font-size="14.00">表达</text>
</g>
<!-- a2&#45;&gt;c8 -->
<g id="edge10" class="edge">
<title>a2&#45;&gt;c8</title>
<path fill="none" stroke="black" d="M599.17,-145.12C603.4,-136.89 608.68,-126.62 613.5,-117.26"/>
<polygon fill="black" stroke="black" points="616.65,-118.79 618.11,-108.29 610.42,-115.58 616.65,-118.79"/>
</g>
<!-- c9 -->
<g id="node13" class="node">
<title>c9</title>
<polygon fill="none" stroke="black" points="752,-108 672,-108 672,-72 752,-72 752,-108"/>
<text text-anchor="middle" x="712" y="-86.3" font-family="Times New Roman,serif" font-size="14.00">依法参与</text>
</g>
<!-- a2&#45;&gt;c9 -->
<g id="edge11" class="edge">
<title>a2&#45;&gt;c9</title>
<path fill="none" stroke="black" d="M613.76,-147.83C630.62,-138.08 653.99,-124.56 673.71,-113.15"/>
<polygon fill="black" stroke="black" points="675.57,-116.12 682.47,-108.08 672.06,-110.06 675.57,-116.12"/>
</g>
</g>
</svg>
