<?xml version="1.0" encoding="UTF-8" standalone="no"?>
<!DOCTYPE svg PUBLIC "-//W3C//DTD SVG 1.1//EN"
 "http://www.w3.org/Graphics/SVG/1.1/DTD/svg11.dtd">
<!-- Generated by graphviz version 2.44.1 (20200629.0800)
 -->
<!-- Title: tmp Pages: 1 -->
<svg width="1164pt" height="480pt"
 viewBox="0.00 0.00 1164.44 479.69" xmlns="http://www.w3.org/2000/svg" xmlns:xlink="http://www.w3.org/1999/xlink">
<g id="graph0" class="graph" transform="scale(1 1) rotate(0) translate(4 475.69)">
<title>tmp</title>
<polygon fill="white" stroke="transparent" points="-4,4 -4,-475.69 1160.44,-475.69 1160.44,4 -4,4"/>
<!-- a -->
<g id="node1" class="node">
<title>a</title>
<polygon fill="none" stroke="black" points="443,-471.69 332,-471.69 332,-433.69 443,-433.69 443,-471.69"/>
<text text-anchor="middle" x="387.5" y="-456.49" font-family="Times New Roman,serif" font-size="14.00">第三课</text>
<text text-anchor="middle" x="387.5" y="-441.49" font-family="Times New Roman,serif" font-size="14.00">追求民主价值</text>
</g>
<!-- b -->
<g id="node2" class="node">
<title>b</title>
<ellipse fill="none" stroke="black" cx="387.5" cy="-370.82" rx="111.95" ry="26.74"/>
<text text-anchor="middle" x="387.5" y="-374.62" font-family="Times New Roman,serif" font-size="14.00">第一框</text>
<text text-anchor="middle" x="387.5" y="-359.62" font-family="Times New Roman,serif" font-size="14.00">生活在新型民主国家</text>
</g>
<!-- a&#45;&gt;b -->
<g id="edge1" class="edge">
<title>a&#45;&gt;b</title>
<path fill="none" stroke="black" d="M387.5,-433.57C387.5,-425.96 387.5,-416.83 387.5,-407.95"/>
<polygon fill="black" stroke="black" points="391,-407.75 387.5,-397.75 384,-407.75 391,-407.75"/>
</g>
<!-- c -->
<g id="node3" class="node">
<title>c</title>
<polygon fill="none" stroke="black" points="427.5,-307.95 347.5,-307.95 347.5,-271.95 427.5,-271.95 427.5,-307.95"/>
<text text-anchor="middle" x="387.5" y="-286.25" font-family="Times New Roman,serif" font-size="14.00">新型民主</text>
</g>
<!-- b&#45;&gt;c -->
<g id="edge2" class="edge">
<title>b&#45;&gt;c</title>
<path fill="none" stroke="black" d="M387.5,-343.56C387.5,-335.46 387.5,-326.52 387.5,-318.35"/>
<polygon fill="black" stroke="black" points="391,-318.17 387.5,-308.17 384,-318.17 391,-318.17"/>
</g>
<!-- d1 -->
<g id="node4" class="node">
<title>d1</title>
<ellipse fill="none" stroke="black" cx="197.5" cy="-217.95" rx="92.88" ry="18"/>
<text text-anchor="middle" x="197.5" y="-214.25" font-family="Times New Roman,serif" font-size="14.00">为什么是新型民主</text>
</g>
<!-- c&#45;&gt;d1 -->
<g id="edge3" class="edge">
<title>c&#45;&gt;d1</title>
<path fill="none" stroke="black" d="M347.21,-274.11C318.41,-263.5 279.43,-249.14 248.47,-237.73"/>
<polygon fill="black" stroke="black" points="249.31,-234.31 238.72,-234.14 246.89,-240.88 249.31,-234.31"/>
</g>
<!-- d2 -->
<g id="node5" class="node">
<title>d2</title>
<ellipse fill="none" stroke="black" cx="387.5" cy="-217.95" rx="51.99" ry="18"/>
<text text-anchor="middle" x="387.5" y="-214.25" font-family="Times New Roman,serif" font-size="14.00">民主形式</text>
</g>
<!-- c&#45;&gt;d2 -->
<g id="edge4" class="edge">
<title>c&#45;&gt;d2</title>
<path fill="none" stroke="black" d="M387.5,-271.65C387.5,-263.94 387.5,-254.67 387.5,-246.07"/>
<polygon fill="black" stroke="black" points="391,-246.06 387.5,-236.06 384,-246.06 391,-246.06"/>
</g>
<!-- d3 -->
<g id="node6" class="node">
<title>d3</title>
<ellipse fill="none" stroke="black" cx="509.5" cy="-217.95" rx="51.99" ry="18"/>
<text text-anchor="middle" x="509.5" y="-214.25" font-family="Times New Roman,serif" font-size="14.00">民主制度</text>
</g>
<!-- c&#45;&gt;d3 -->
<g id="edge5" class="edge">
<title>c&#45;&gt;d3</title>
<path fill="none" stroke="black" d="M417.34,-271.83C434.65,-261.9 456.52,-249.35 474.61,-238.97"/>
<polygon fill="black" stroke="black" points="476.75,-241.78 483.68,-233.77 473.27,-235.71 476.75,-241.78"/>
</g>
<!-- e1 -->
<g id="node7" class="node">
<title>e1</title>
<polygon fill="none" stroke="black" points="111,-156.45 0,-156.45 0,-118.45 111,-118.45 111,-156.45"/>
<text text-anchor="middle" x="55.5" y="-141.25" font-family="Times New Roman,serif" font-size="14.00">人民当家作主</text>
<text text-anchor="middle" x="55.5" y="-126.25" font-family="Times New Roman,serif" font-size="14.00">是本质特征</text>
</g>
<!-- d1&#45;&gt;e1 -->
<g id="edge6" class="edge">
<title>d1&#45;&gt;e1</title>
<path fill="none" stroke="black" d="M168.08,-200.69C147.5,-189.31 119.71,-173.95 96.9,-161.34"/>
<polygon fill="black" stroke="black" points="98.55,-158.25 88.11,-156.48 95.17,-164.38 98.55,-158.25"/>
</g>
<!-- e2 -->
<g id="node8" class="node">
<title>e2</title>
<polygon fill="none" stroke="black" points="209.5,-163.95 129.5,-163.95 129.5,-110.95 209.5,-110.95 209.5,-163.95"/>
<text text-anchor="middle" x="169.5" y="-148.75" font-family="Times New Roman,serif" font-size="14.00">最广泛、</text>
<text text-anchor="middle" x="169.5" y="-133.75" font-family="Times New Roman,serif" font-size="14.00">最真实、</text>
<text text-anchor="middle" x="169.5" y="-118.75" font-family="Times New Roman,serif" font-size="14.00">最管用</text>
</g>
<!-- d1&#45;&gt;e2 -->
<g id="edge7" class="edge">
<title>d1&#45;&gt;e2</title>
<path fill="none" stroke="black" d="M191.42,-199.92C188.68,-192.24 185.34,-182.86 182.1,-173.77"/>
<polygon fill="black" stroke="black" points="185.31,-172.35 178.65,-164.11 178.71,-174.7 185.31,-172.35"/>
</g>
<!-- e3 -->
<g id="node9" class="node">
<title>e3</title>
<polygon fill="none" stroke="black" points="323,-163.95 228,-163.95 228,-110.95 323,-110.95 323,-163.95"/>
<text text-anchor="middle" x="275.5" y="-148.75" font-family="Times New Roman,serif" font-size="14.00">协商民主</text>
<text text-anchor="middle" x="275.5" y="-133.75" font-family="Times New Roman,serif" font-size="14.00">是特有形式</text>
<text text-anchor="middle" x="275.5" y="-118.75" font-family="Times New Roman,serif" font-size="14.00">和独特优势</text>
</g>
<!-- d1&#45;&gt;e3 -->
<g id="edge8" class="edge">
<title>d1&#45;&gt;e3</title>
<path fill="none" stroke="black" d="M214.42,-199.92C222.71,-191.58 232.97,-181.25 242.71,-171.46"/>
<polygon fill="black" stroke="black" points="245.44,-173.67 250.01,-164.11 240.48,-168.74 245.44,-173.67"/>
</g>
<!-- e4 -->
<g id="node10" class="node">
<title>e4</title>
<polygon fill="none" stroke="black" points="436,-155.45 341,-155.45 341,-119.45 436,-119.45 436,-155.45"/>
<text text-anchor="middle" x="388.5" y="-133.75" font-family="Times New Roman,serif" font-size="14.00">选举、协商</text>
</g>
<!-- d2&#45;&gt;e4 -->
<g id="edge9" class="edge">
<title>d2&#45;&gt;e4</title>
<path fill="none" stroke="black" d="M387.72,-199.92C387.84,-189.94 388.01,-177.11 388.15,-165.75"/>
<polygon fill="black" stroke="black" points="391.66,-165.5 388.28,-155.45 384.66,-165.41 391.66,-165.5"/>
</g>
<!-- e5 -->
<g id="node11" class="node">
<title>e5</title>
<polygon fill="none" stroke="black" points="565,-155.45 454,-155.45 454,-119.45 565,-119.45 565,-155.45"/>
<text text-anchor="middle" x="509.5" y="-133.75" font-family="Times New Roman,serif" font-size="14.00">根本政治制度</text>
</g>
<!-- d3&#45;&gt;e5 -->
<g id="edge10" class="edge">
<title>d3&#45;&gt;e5</title>
<path fill="none" stroke="black" d="M509.5,-199.92C509.5,-189.94 509.5,-177.11 509.5,-165.75"/>
<polygon fill="black" stroke="black" points="513,-165.45 509.5,-155.45 506,-165.45 513,-165.45"/>
</g>
<!-- e6 -->
<g id="node12" class="node">
<title>e6</title>
<polygon fill="none" stroke="black" points="841,-155.45 730,-155.45 730,-119.45 841,-119.45 841,-155.45"/>
<text text-anchor="middle" x="785.5" y="-133.75" font-family="Times New Roman,serif" font-size="14.00">基本政治制度</text>
</g>
<!-- d3&#45;&gt;e6 -->
<g id="edge11" class="edge">
<title>d3&#45;&gt;e6</title>
<path fill="none" stroke="black" d="M548.46,-205.87C593.01,-193.2 666.68,-172.25 720.08,-157.06"/>
<polygon fill="black" stroke="black" points="721.14,-160.4 729.8,-154.3 719.22,-153.66 721.14,-160.4"/>
</g>
<!-- f1 -->
<g id="node13" class="node">
<title>f1</title>
<ellipse fill="none" stroke="black" cx="435.5" cy="-37.48" rx="92.88" ry="18"/>
<text text-anchor="middle" x="435.5" y="-33.78" font-family="Times New Roman,serif" font-size="14.00">人民代表大会制度</text>
</g>
<!-- e5&#45;&gt;f1 -->
<g id="edge12" class="edge">
<title>e5&#45;&gt;f1</title>
<path fill="none" stroke="black" d="M496.61,-119.39C484.94,-103.93 467.6,-80.97 454.36,-63.45"/>
<polygon fill="black" stroke="black" points="457.06,-61.22 448.24,-55.35 451.48,-65.44 457.06,-61.22"/>
</g>
<!-- f2 -->
<g id="node14" class="node">
<title>f2</title>
<ellipse fill="none" stroke="black" cx="647.5" cy="-37.48" rx="101.23" ry="37.45"/>
<text text-anchor="middle" x="647.5" y="-48.78" font-family="Times New Roman,serif" font-size="14.00">中国共产党领导的</text>
<text text-anchor="middle" x="647.5" y="-33.78" font-family="Times New Roman,serif" font-size="14.00">多党合作</text>
<text text-anchor="middle" x="647.5" y="-18.78" font-family="Times New Roman,serif" font-size="14.00">和政治协商制度</text>
</g>
<!-- e6&#45;&gt;f2 -->
<g id="edge13" class="edge">
<title>e6&#45;&gt;f2</title>
<path fill="none" stroke="black" d="M761.46,-119.39C744.97,-107.68 722.41,-91.66 701.71,-76.96"/>
<polygon fill="black" stroke="black" points="703.46,-73.91 693.28,-70.98 699.41,-79.62 703.46,-73.91"/>
</g>
<!-- f3 -->
<g id="node15" class="node">
<title>f3</title>
<ellipse fill="none" stroke="black" cx="859.5" cy="-37.48" rx="92.88" ry="18"/>
<text text-anchor="middle" x="859.5" y="-33.78" font-family="Times New Roman,serif" font-size="14.00">民族区域自治制度</text>
</g>
<!-- e6&#45;&gt;f3 -->
<g id="edge14" class="edge">
<title>e6&#45;&gt;f3</title>
<path fill="none" stroke="black" d="M798.39,-119.39C810.06,-103.93 827.4,-80.97 840.64,-63.45"/>
<polygon fill="black" stroke="black" points="843.52,-65.44 846.76,-55.35 837.94,-61.22 843.52,-65.44"/>
</g>
<!-- f4 -->
<g id="node16" class="node">
<title>f4</title>
<ellipse fill="none" stroke="black" cx="1063.5" cy="-37.48" rx="92.88" ry="18"/>
<text text-anchor="middle" x="1063.5" y="-33.78" font-family="Times New Roman,serif" font-size="14.00">基层群众自治制度</text>
</g>
<!-- e6&#45;&gt;f4 -->
<g id="edge15" class="edge">
<title>e6&#45;&gt;f4</title>
<path fill="none" stroke="black" d="M834.47,-119.45C869.8,-107.15 918.62,-90.11 961.5,-74.95 977.8,-69.19 995.54,-62.86 1011.6,-57.12"/>
<polygon fill="black" stroke="black" points="1013.11,-60.3 1021.34,-53.63 1010.75,-53.71 1013.11,-60.3"/>
</g>
</g>
</svg>
